<svg width="26" height="23" viewBox="0 0 26 23" fill="none" xmlns="http://www.w3.org/2000/svg">
<path d="M23.5833 13.1125L25.635 4.08473C25.7832 3.4329 25.2877 2.8122 24.6193 2.8122H7.57145L7.17362 0.867323C7.07448 0.382558 6.64792 0.0344238 6.15309 0.0344238H1.70304C1.12774 0.0344238 0.661377 0.500787 0.661377 1.07609V1.77053C0.661377 2.34584 1.12774 2.8122 1.70304 2.8122H4.73616L7.78512 17.7182C7.05569 18.1377 6.56415 18.9243 6.56415 19.8261C6.56415 21.1685 7.65235 22.2566 8.99471 22.2566C10.3371 22.2566 11.4253 21.1685 11.4253 19.8261C11.4253 19.1458 11.1454 18.5312 10.6951 18.09H19.7943C19.344 18.5312 19.0642 19.1458 19.0642 19.8261C19.0642 21.1685 20.1523 22.2566 21.4947 22.2566C22.8371 22.2566 23.9253 21.1685 23.9253 19.8261C23.9253 18.8638 23.3659 18.0322 22.5546 17.6384L22.7941 16.5847C22.9422 15.9329 22.4468 15.3122 21.7783 15.3122H10.1283L9.84419 13.9233H22.5675C23.0539 13.9233 23.4755 13.5868 23.5833 13.1125Z" fill="#FFD700"/>
</svg>
