<svg width="36" height="29" viewBox="0 0 36 29" fill="none" xmlns="http://www.w3.org/2000/svg">
<path d="M29.7 25.2H6.3C5.805 25.2 5.4 25.605 5.4 26.1V27.9C5.4 28.395 5.805 28.8 6.3 28.8H29.7C30.195 28.8 30.6 28.395 30.6 27.9V26.1C30.6 25.605 30.195 25.2 29.7 25.2ZM33.3 7.2C31.8094 7.2 30.6 8.40938 30.6 9.9C30.6 10.2994 30.69 10.6706 30.8475 11.0138L26.775 13.455C25.9087 13.9725 24.7894 13.68 24.2887 12.8025L19.7044 4.78125C20.3062 4.28625 20.7 3.54375 20.7 2.7C20.7 1.20938 19.4906 0 18 0C16.5094 0 15.3 1.20938 15.3 2.7C15.3 3.54375 15.6938 4.28625 16.2956 4.78125L11.7112 12.8025C11.2106 13.68 10.0856 13.9725 9.225 13.455L5.15812 11.0138C5.31 10.6762 5.40562 10.2994 5.40562 9.9C5.40562 8.40938 4.19625 7.2 2.70562 7.2C1.215 7.2 0 8.40938 0 9.9C0 11.3906 1.20938 12.6 2.7 12.6C2.84625 12.6 2.9925 12.5775 3.13313 12.555L7.2 23.4H28.8L32.8669 12.555C33.0075 12.5775 33.1537 12.6 33.3 12.6C34.7906 12.6 36 11.3906 36 9.9C36 8.40938 34.7906 7.2 33.3 7.2Z" fill="#FFD700"/>
</svg>
